Antonio.ufo
<glyph name="E" format="1">
  <advance width="686"/>
  <unicode hex="0045"/>
  <outline>
    <contour>
      <point x="198" y="961" type="line"/>
      <point x="599" y="961" type="line"/>
      <point x="599" y="823" type="line"/>
      <point x="198" y="823" type="line"/>
    </contour>
    <contour>
      <point x="204" y="136" type="line"/>
      <point x="617" y="136" type="line"/>
      <point x="617" y="0" type="line"/>
      <point x="204" y="0" type="line"/>
    </contour>
    <contour>
      <point x="300" y="1761" type="line"/>
      <point x="300" y="0" type="line"/>
      <point x="132" y="0" type="line"/>
      <point x="132" y="1761" type="line"/>
    </contour>
    <contour>
      <point x="204.0" y="1761" type="line"/>
      <point x="617" y="1761" type="line"/>
      <point x="617" y="1625" type="line"/>
      <point x="204.0" y="1625" type="line"/>
    </contour>
  </outline>
</glyph>
<glyph name="H" format="1">
  <advance width="909"/>
  <unicode hex="0048"/>
  <outline>
    <contour>
      <point x="609" y="0" type="line"/>
      <point x="777" y="0" type="line"/>
      <point x="777" y="1761" type="line"/>
      <point x="609" y="1761" type="line"/>
      <point x="609" y="938" type="line"/>
      <point x="300" y="938" type="line"/>
      <point x="300" y="1761" type="line"/>
      <point x="132" y="1761" type="line"/>
      <point x="132" y="0" type="line"/>
      <point x="300" y="0" type="line"/>
      <point x="300" y="807" type="line"/>
      <point x="609" y="807" type="line"/>
    </contour>
  </outline>
</glyph>
<glyph name="J" format="1">
  <advance width="758"/>
  <unicode hex="004A"/>
  <outline>
    <contour>
      <point x="458" y="1761" type="line"/>
      <point x="458" y="418" type="line" smooth="yes"/>
      <point x="458" y="243"/>
      <point x="461" y="120"/>
      <point x="336" y="120" type="curve" smooth="yes"/>
      <point x="213" y="120"/>
      <point x="214" y="250"/>
      <point x="214" y="402" type="curve" smooth="yes"/>
      <point x="214" y="566" type="line"/>
      <point x="46" y="566" type="line"/>
      <point x="46" y="389" type="line" smooth="yes"/>
      <point x="46" y="113"/>
      <point x="123" y="-21"/>
      <point x="342" y="-21" type="curve" smooth="yes"/>
      <point x="542" y="-21"/>
      <point x="626" y="122"/>
      <point x="626" y="422" type="curve" smooth="yes"/>
      <point x="626" y="1761" type="line"/>
    </contour>
  </outline>
</glyph>
<glyph name="K" format="1">
  <advance width="810"/>
  <unicode hex="004B"/>
  <outline>
    <contour>
      <point x="300" y="1761" type="line"/>
      <point x="132" y="1761" type="line"/>
      <point x="132" y="0" type="line"/>
      <point x="302" y="0" type="line"/>
      <point x="302" y="854" type="line"/>
      <point x="655" y="0" type="line"/>
      <point x="830" y="0" type="line"/>
      <point x="456" y="891" type="line"/>
      <point x="807" y="1761" type="line"/>
      <point x="641" y="1761" type="line"/>
      <point x="300" y="902" type="line"/>
    </contour>
  </outline>
</glyph>
<glyph name="Y" format="1">
  <advance width="864"/>
  <unicode hex="0059"/>
  <outline>
    <contour>
      <point x="446.0" y="332.0" type="line"/>
      <point x="209.0" y="1761.0" type="line"/>
      <point x="48.0" y="1761.0" type="line"/>
      <point x="354.0" y="0.0" type="line"/>
      <point x="538.0" y="0.0" type="line"/>
      <point x="816.0" y="1761.0" type="line"/>
      <point x="656.0" y="1761.0" type="line"/>
    </contour>
  </outline>
</glyph>
<glyph name="a" format="1">
  <advance width="813"/>
  <unicode hex="0061"/>
  <outline>
    <contour>
      <point x="96" y="380" type="line" smooth="yes"/>
      <point x="96" y="130"/>
      <point x="174" y="-12"/>
      <point x="341" y="-12" type="curve" smooth="yes"/>
      <point x="462" y="-12"/>
      <point x="526" y="73"/>
      <point x="540" y="118" type="curve"/>
      <point x="540" y="0" type="line"/>
      <point x="708" y="0" type="line"/>
      <point x="708" y="479" type="line"/>
      <point x="708" y="991" type="line" smooth="yes"/>
      <point x="708" y="1332"/>
      <point x="695" y="1518"/>
      <point x="416" y="1518" type="curve" smooth="yes"/>
      <point x="135" y="1518"/>
      <point x="114" y="1302"/>
      <point x="114" y="1056" type="curve" smooth="yes"/>
      <point x="114" y="1015" type="line"/>
      <point x="114" y="1015"/>
      <point x="282" y="1015"/>
      <point x="282" y="1015" type="curve"/>
      <point x="282" y="1057" type="line" smooth="yes"/>
      <point x="282" y="1284"/>
      <point x="296" y="1374"/>
      <point x="415" y="1374" type="curve" smooth="yes"/>
      <point x="536" y="1374"/>
      <point x="540" y="1281"/>
      <point x="540" y="1064" type="curve" smooth="yes"/>
      <point x="540" y="226" type="line"/>
      <point x="520" y="186"/>
      <point x="460" y="130"/>
      <point x="387" y="126" type="curve" smooth="yes"/>
      <point x="384" y="126"/>
      <point x="381" y="126"/>
      <point x="378" y="126" type="curve" smooth="yes"/>
      <point x="286" y="126"/>
      <point x="264" y="200"/>
      <point x="264" y="390" type="curve" smooth="yes"/>
      <point x="264" y="516" type="line" smooth="yes"/>
      <point x="264" y="707"/>
      <point x="308" y="730"/>
      <point x="562" y="844" type="curve"/>
      <point x="562" y="967" type="line"/>
      <point x="300" y="855"/>
      <point x="96" y="793"/>
      <point x="96" y="556" type="curve" smooth="yes"/>
    </contour>
  </outline>
</glyph>
<glyph name="j" format="1">
  <advance width="444"/>
  <unicode hex="006A"/>
  <outline>
    <contour>
      <point x="53" y="-150"/>
      <point x="90" y="-158"/>
      <point x="141" y="-158" type="curve" smooth="yes"/>
      <point x="157" y="-158"/>
      <point x="174" y="-157"/>
      <point x="191" y="-155" type="curve" smooth="yes"/>
      <point x="239" y="-150"/>
      <point x="329" y="-115"/>
      <point x="329" y="46" type="curve" smooth="yes"/>
      <point x="329" y="1500" type="line"/>
      <point x="161" y="1500" type="line"/>
      <point x="161" y="36" type="line" smooth="yes"/>
      <point x="161" y="-1"/>
      <point x="152" y="-26"/>
      <point x="120" y="-31" type="curve" smooth="yes"/>
      <point x="112" y="-32"/>
      <point x="104" y="-33"/>
      <point x="95" y="-33" type="curve" smooth="yes"/>
      <point x="73" y="-33"/>
      <point x="53" y="-30"/>
      <point x="53" y="-30" type="curve"/>
      <point x="53" y="-150" type="line"/>
    </contour>
    <contour>
      <point x="329" y="1800" type="line"/>
      <point x="161" y="1800" type="line"/>
      <point x="161" y="1614" type="line"/>
      <point x="329" y="1614" type="line"/>
    </contour>
  </outline>
</glyph>
<glyph name="o" format="1">
  <advance width="796.001311173"/>
  <unicode hex="006F"/>
  <outline>
    <contour>
      <point x="401" y="63" type="curve" smooth="yes"/>
      <point x="212" y="63"/>
      <point x="213" y="258"/>
      <point x="213" y="455" type="curve" smooth="yes"/>
      <point x="213" y="1058" type="line" smooth="yes"/>
      <point x="213" y="1245"/>
      <point x="213" y="1437"/>
      <point x="402" y="1437" type="curve" smooth="yes"/>
      <point x="582" y="1437"/>
      <point x="583" y="1245"/>
      <point x="583" y="1058" type="curve" smooth="yes"/>
      <point x="583" y="455" type="line" smooth="yes"/>
      <point x="583" y="258"/>
      <point x="583" y="63"/>
    </contour>
    <contour>
      <point x="679" y="1021" type="line" smooth="yes"/>
      <point x="679" y="1304"/>
      <point x="672" y="1518"/>
      <point x="401" y="1518" type="curve" smooth="yes"/>
      <point x="131" y="1518"/>
      <point x="117" y="1303"/>
      <point x="117" y="1021" type="curve" smooth="yes"/>
      <point x="117" y="509" type="line" smooth="yes"/>
      <point x="117" y="198"/>
      <point x="122" y="-18"/>
      <point x="401" y="-18" type="curve" smooth="yes"/>
      <point x="682" y="-18"/>
      <point x="679" y="203"/>
      <point x="679" y="509" type="curve" smooth="yes"/>
    </contour>
  </outline>
</glyph>
<glyph name="u" format="1">
  <advance width="857"/>
  <unicode hex="0075"/>
  <outline>
    <contour>
      <point x="315" y="132"/>
      <point x="273" y="169"/>
      <point x="273" y="286" type="curve" smooth="yes"/>
      <point x="273" y="1500" type="line"/>
      <point x="105" y="1500" type="line"/>
      <point x="105" y="294" type="line" smooth="yes"/>
      <point x="105" y="92"/>
      <point x="180" y="-6"/>
      <point x="308" y="-18" type="curve" smooth="yes"/>
      <point x="316" y="-19"/>
      <point x="324" y="-19"/>
      <point x="332" y="-19" type="curve" smooth="yes"/>
      <point x="450" y="-19"/>
      <point x="548" y="63"/>
      <point x="574" y="151" type="curve"/>
      <point x="574" y="0" type="line"/>
      <point x="742" y="0" type="line"/>
      <point x="742" y="1500" type="line"/>
      <point x="574" y="1500" type="line"/>
      <point x="574" y="295" type="line"/>
      <point x="554" y="212"/>
      <point x="456" y="132"/>
      <point x="373" y="132" type="curve" smooth="yes"/>
    </contour>
  </outline>
</glyph>
<glyph name="x" format="1">
  <advance width="932"/>
  <unicode hex="0078"/>
  <outline>
    <contour>
      <point x="328" y="0" type="line"/>
      <point x="467" y="428" type="line"/>
      <point x="603" y="0" type="line"/>
      <point x="934" y="0" type="line"/>
      <point x="658" y="779" type="line"/>
      <point x="912" y="1501" type="line"/>
      <point x="588" y="1501" type="line"/>
      <point x="469" y="1058" type="line"/>
      <point x="351" y="1501" type="line"/>
      <point x="33" y="1501" type="line"/>
      <point x="279" y="783" type="line"/>
      <point x="-2" y="0" type="line"/>
    </contour>
  </outline>
</glyph>
<glyph name="sterling" format="1">
  <advance width="1077"/>
  <unicode hex="00A3"/>
  <outline>
    <contour>
      <point x="990" y="318" type="line"/>
      <point x="506" y="318" type="line"/>
      <point x="588" y="358"/>
      <point x="675" y="446"/>
      <point x="675" y="604" type="curve" smooth="yes"/>
      <point x="675" y="646"/>
      <point x="669" y="693"/>
      <point x="655" y="745" type="curve"/>
      <point x="897" y="745" type="line"/>
      <point x="897" y="1002" type="line"/>
      <point x="589" y="1002" type="line"/>
      <point x="544.6459198" y="1193.42289734"/>
      <point x="494.0" y="1324.45419312"/>
      <point x="494.0" y="1414.0" type="curve" smooth="yes"/>
      <point x="494.0" y="1479.0"/>
      <point x="532.0" y="1500.0"/>
      <point x="588.0" y="1500.0" type="curve" smooth="yes"/>
      <point x="641.0" y="1500.0"/>
      <point x="671.0" y="1466.0"/>
      <point x="671.0" y="1393.0" type="curve" smooth="yes"/>
      <point x="671.0" y="1246.0" type="line"/>
      <point x="999.0" y="1246.0" type="line"/>
      <point x="999.0" y="1381.0" type="line" smooth="yes"/>
      <point x="999.0" y="1649.0"/>
      <point x="882.0" y="1781.0"/>
      <point x="599.0" y="1781.0" type="curve" smooth="yes"/>
      <point x="329.0" y="1781.0"/>
      <point x="159.0" y="1647.0"/>
      <point x="159.0" y="1380.0" type="curve" smooth="yes"/>
      <point x="159.0" y="1307.0"/>
      <point x="204.0" y="1145.0"/>
      <point x="256.0" y="1002.0" type="curve"/>
      <point x="87.0" y="1002.0" type="line"/>
      <point x="87.0" y="745.0" type="line"/>
      <point x="308.0" y="745.0" type="line"/>
      <point x="316.0" y="704.0"/>
      <point x="320.0" y="665.0"/>
      <point x="320.0" y="630.0" type="curve" smooth="yes"/>
      <point x="320.0" y="476.0"/>
      <point x="245.0" y="368.0"/>
      <point x="82.0" y="297.0" type="curve"/>
      <point x="82.0" y="0.0" type="line"/>
      <point x="990.0" y="0.0" type="line"/>
    </contour>
  </outline>
</glyph>
<glyph name="gbreve" format="1">
  <advance width="1084"/>
  <unicode hex="011F"/>
  <outline>
    <contour>
      <point x="525.5" y="1871" type="curve" smooth="yes"/>
      <point x="442.5" y="1871"/>
      <point x="390.5" y="1889"/>
      <point x="390.5" y="2014" type="curve"/>
      <point x="172.5" y="2014" type="line"/>
      <point x="172.5" y="1999" type="line" smooth="yes"/>
      <point x="172.5" y="1782"/>
      <point x="289.5" y="1681"/>
      <point x="523.5" y="1681" type="curve" smooth="yes"/>
      <point x="763.5" y="1681"/>
      <point x="878.5" y="1778"/>
      <point x="878.5" y="2001" type="curve" smooth="yes"/>
      <point x="878.5" y="2014" type="line"/>
      <point x="660.5" y="2014" type="line"/>
      <point x="660.5" y="1889"/>
      <point x="608.5" y="1871"/>
    </contour>
    <contour>
      <point x="624.0" y="582" type="line" smooth="yes"/>
      <point x="624.0" y="481"/>
      <point x="596.0" y="430"/>
      <point x="540.0" y="430" type="curve" smooth="yes"/>
      <point x="466.0" y="430"/>
      <point x="458.0" y="510"/>
      <point x="458.0" y="582" type="curve" smooth="yes"/>
      <point x="458.0" y="1116" type="line" smooth="yes"/>
      <point x="458.0" y="1183"/>
      <point x="467.0" y="1243"/>
      <point x="536.0" y="1243" type="curve" smooth="yes"/>
      <point x="591.0" y="1243"/>
      <point x="624.0" y="1171"/>
      <point x="624.0" y="1116" type="curve" smooth="yes"/>
    </contour>
    <contour>
      <point x="624.0" y="1500" type="line"/>
      <point x="624.0" y="1331" type="line"/>
      <point x="599.0" y="1444"/>
      <point x="527.0" y="1518"/>
      <point x="395.0" y="1518" type="curve" smooth="yes"/>
      <point x="160.0" y="1518"/>
      <point x="102.0" y="1348"/>
      <point x="102.0" y="1106" type="curve" smooth="yes"/>
      <point x="102.0" y="543" type="line" smooth="yes"/>
      <point x="102.0" y="328"/>
      <point x="180.0" y="160"/>
      <point x="395.0" y="160" type="curve" smooth="yes"/>
      <point x="518.0" y="160"/>
      <point x="595.0" y="211"/>
      <point x="624.0" y="314" type="curve"/>
      <point x="624.0" y="231" type="line" smooth="yes"/>
      <point x="624.0" y="113"/>
      <point x="569.0" y="33"/>
      <point x="454.0" y="33" type="curve" smooth="yes"/>
      <point x="367.0" y="33"/>
      <point x="279.0" y="59"/>
      <point x="192.0" y="111" type="curve"/>
      <point x="71.0" y="-96" type="line"/>
      <point x="188.0" y="-194"/>
      <point x="293.0" y="-220"/>
      <point x="501.0" y="-220" type="curve" smooth="yes"/>
      <point x="838.0" y="-220"/>
      <point x="980.0" y="-86"/>
      <point x="980.0" y="254" type="curve" smooth="yes"/>
      <point x="980.0" y="1500" type="line"/>
    </contour>
  </outline>
</glyph>
<glyph name="ldot" format="1">
  <advance width="1074"/>
  <unicode hex="0140"/>
  <outline>
    <contour>
      <point x="980" y="1021" type="line"/>
      <point x="702" y="1021" type="line"/>
      <point x="702" y="723" type="line"/>
      <point x="980" y="723" type="line"/>
    </contour>
    <contour>
      <point x="115" y="1769" type="line"/>
      <point x="115" y="0" type="line"/>
      <point x="479" y="0" type="line"/>
      <point x="479" y="1769" type="line"/>
    </contour>
  </outline>
</glyph>
<glyph name="lslash" format="1">
  <advance width="718"/>
  <unicode hex="0142"/>
  <outline>
    <contour>
      <point x="176" y="0" type="line"/>
      <point x="540" y="0" type="line"/>
      <point x="540" y="886" type="line"/>
      <point x="617" y="921" type="line"/>
      <point x="617" y="1153" type="line"/>
      <point x="540" y="1118" type="line"/>
      <point x="540" y="1767" type="line"/>
      <point x="176" y="1767" type="line"/>
      <point x="176" y="955" type="line"/>
      <point x="101" y="921" type="line"/>
      <point x="101" y="689" type="line"/>
      <point x="176" y="723" type="line"/>
    </contour>
  </outline>
</glyph>
<glyph name="Nacute" format="1">
  <advance width="1144"/>
  <unicode hex="0143"/>
  <outline>
    <contour>
      <point x="334.5" y="1944" type="line"/>
      <point x="809.5" y="2038" type="line"/>
      <point x="809.5" y="2385" type="line"/>
      <point x="334.5" y="2167" type="line"/>
    </contour>
    <contour>
      <point x="692.0" y="947" type="line"/>
      <point x="444.0" y="1761" type="line"/>
      <point x="122.0" y="1761" type="line"/>
      <point x="122.0" y="0" type="line"/>
      <point x="452.0" y="0" type="line"/>
      <point x="452.0" y="860" type="line"/>
      <point x="714.0" y="0" type="line"/>
      <point x="1022.0" y="0" type="line"/>
      <point x="1022.0" y="1761" type="line"/>
      <point x="692.0" y="1761" type="line"/>
    </contour>
  </outline>
</glyph>
<glyph name="nacute" format="1">
  <advance width="1099"/>
  <unicode hex="0144"/>
  <outline>
    <contour>
      <point x="315.5" y="1681" type="line"/>
      <point x="790.5" y="1775" type="line"/>
      <point x="790.5" y="2122" type="line"/>
      <point x="315.5" y="1904" type="line"/>
    </contour>
    <contour>
      <point x="558.0" y="1239" type="curve" smooth="yes"/>
      <point x="616.0" y="1239"/>
      <point x="638.0" y="1179"/>
      <point x="638.0" y="1120" type="curve" smooth="yes"/>
      <point x="638.0" y="0" type="line"/>
      <point x="994.0" y="0" type="line"/>
      <point x="994.0" y="1157" type="line" smooth="yes"/>
      <point x="994.0" y="1379"/>
      <point x="912.0" y="1518"/>
      <point x="704.0" y="1518" type="curve" smooth="yes"/>
      <point x="575.0" y="1518"/>
      <point x="494.0" y="1423"/>
      <point x="468.0" y="1309" type="curve"/>
      <point x="468.0" y="1500" type="line"/>
      <point x="112.0" y="1500" type="line"/>
      <point x="112.0" y="0" type="line"/>
      <point x="468.0" y="0" type="line"/>
      <point x="468.0" y="1055" type="line" smooth="yes"/>
      <point x="468.0" y="1138"/>
      <point x="475.0" y="1239"/>
    </contour>
  </outline>
</glyph>
<glyph name="Rcaron" format="1">
  <advance width="1109"/>
  <unicode hex="0158"/>
  <outline>
    <contour>
      <point x="766" y="1944" type="line"/>
      <point x="1007" y="2347" type="line"/>
      <point x="648" y="2347" type="line"/>
      <point x="562" y="2062" type="line"/>
      <point x="476" y="2347" type="line"/>
      <point x="117" y="2347" type="line"/>
      <point x="358" y="1944" type="line"/>
    </contour>
    <contour>
      <point x="640" y="1305" type="curve" smooth="yes"/>
      <point x="640" y="1154"/>
      <point x="626" y="1094"/>
      <point x="550" y="1094" type="curve" smooth="yes"/>
      <point x="482" y="1094" type="line"/>
      <point x="482" y="1490" type="line"/>
      <point x="515" y="1490" type="line" smooth="yes"/>
      <point x="633" y="1490"/>
      <point x="640" y="1442"/>
    </contour>
    <contour>
      <point x="836" y="938" type="curve"/>
      <point x="970" y="982"/>
      <point x="994" y="1077"/>
      <point x="994" y="1269" type="curve" smooth="yes"/>
      <point x="994" y="1566"/>
      <point x="944" y="1761"/>
      <point x="674" y="1761" type="curve" smooth="yes"/>
      <point x="122" y="1761" type="line"/>
      <point x="122" y="0" type="line"/>
      <point x="480" y="0" type="line"/>
      <point x="480" y="803" type="line"/>
      <point x="573" y="803"/>
      <point x="640" y="792"/>
      <point x="640" y="689" type="curve" smooth="yes"/>
      <point x="640" y="0" type="line"/>
      <point x="1001" y="0" type="line"/>
      <point x="1002" y="666" type="line" smooth="yes"/>
      <point x="1002" y="805"/>
      <point x="946" y="915"/>
    </contour>
  </outline>
</glyph>
<glyph name="zdotaccent" format="1">
  <advance width="821"/>
  <unicode hex="017C"/>
  <outline>
    <contour>
      <point x="238" y="1681" type="line"/>
      <point x="596" y="1681" type="line"/>
      <point x="596" y="1979" type="line"/>
      <point x="238" y="1979" type="line"/>
    </contour>
    <contour>
      <point x="745" y="294" type="line"/>
      <point x="431" y="294" type="line"/>
      <point x="759" y="1233" type="line"/>
      <point x="759" y="1500" type="line"/>
      <point x="100" y="1500" type="line"/>
      <point x="100" y="1197" type="line"/>
      <point x="405" y="1197" type="line"/>
      <point x="75" y="272" type="line"/>
      <point x="75" y="0" type="line"/>
      <point x="745" y="0" type="line"/>
    </contour>
  </outline>
</glyph>
<glyph name="uni01C4" format="1">
  <advance width="1987"/>
  <unicode hex="01C4"/>
  <outline>
    <contour>
      <point x="1759.5" y="1944" type="line"/>
      <point x="2000.5" y="2347" type="line"/>
      <point x="1641.5" y="2347" type="line"/>
      <point x="1555.5" y="2062" type="line"/>
      <point x="1469.5" y="2347" type="line"/>
      <point x="1110.5" y="2347" type="line"/>
      <point x="1351.5" y="1944" type="line"/>
    </contour>
    <contour>
      <point x="1922.0" y="318" type="line"/>
      <point x="1564.0" y="318" type="line"/>
      <point x="1930.0" y="1454" type="line"/>
      <point x="1930.0" y="1761" type="line"/>
      <point x="1214.0" y="1761" type="line"/>
      <point x="1214.0" y="1440" type="line"/>
      <point x="1549.0" y="1440" type="line"/>
      <point x="1181.0" y="325" type="line"/>
      <point x="1181.0" y="0" type="line"/>
      <point x="1922.0" y="0" type="line"/>
    </contour>
    <contour>
      <point x="644.0" y="364" type="line" smooth="yes"/>
      <point x="644.0" y="301"/>
      <point x="610.0" y="270"/>
      <point x="543.0" y="270" type="curve" smooth="yes"/>
      <point x="482.0" y="270" type="line"/>
      <point x="482.0" y="1490" type="line"/>
      <point x="521.0" y="1490" type="line" smooth="yes"/>
      <point x="621.0" y="1490"/>
      <point x="644.0" y="1440"/>
      <point x="644.0" y="1323" type="curve" smooth="yes"/>
    </contour>
    <contour>
      <point x="1004.0" y="1347" type="line" smooth="yes"/>
      <point x="1004.0" y="1617"/>
      <point x="866.0" y="1761"/>
      <point x="613.0" y="1761" type="curve" smooth="yes"/>
      <point x="122.0" y="1761" type="line"/>
      <point x="122.0" y="0" type="line"/>
      <point x="601.0" y="0" type="line" smooth="yes"/>
      <point x="893.0" y="0"/>
      <point x="1004.0" y="189"/>
      <point x="1004.0" y="522" type="curve" smooth="yes"/>
    </contour>
  </outline>
</glyph>
<glyph name="uni0206" format="1">
  <advance width="894"/>
  <unicode hex="0206"/>
  <outline>
    <contour>
      <point x="464" y="2087" type="curve" smooth="yes"/>
      <point x="547" y="2087"/>
      <point x="599" y="2069"/>
      <point x="599" y="1944" type="curve"/>
      <point x="817" y="1944" type="line"/>
      <point x="817" y="1959" type="line" smooth="yes"/>
      <point x="817" y="2176"/>
      <point x="700" y="2277"/>
      <point x="466" y="2277" type="curve" smooth="yes"/>
      <point x="226" y="2277"/>
      <point x="111" y="2180"/>
      <point x="111" y="1957" type="curve" smooth="yes"/>
      <point x="111" y="1944" type="line"/>
      <point x="329" y="1944" type="line"/>
      <point x="329" y="2069"/>
      <point x="381" y="2087"/>
    </contour>
    <contour>
      <point x="806" y="318" type="line"/>
      <point x="482" y="318" type="line"/>
      <point x="482" y="746" type="line"/>
      <point x="769" y="746" type="line"/>
      <point x="769" y="1065" type="line"/>
      <point x="482" y="1065" type="line"/>
      <point x="482" y="1440" type="line"/>
      <point x="783" y="1440" type="line"/>
      <point x="783" y="1761" type="line"/>
      <point x="122" y="1761" type="line"/>
      <point x="122" y="0" type="line"/>
      <point x="806" y="0" type="line"/>
    </contour>
  </outline>
</glyph>
<glyph name="uni0209" format="1">
  <advance width="586"/>
  <unicode hex="0209"/>
  <outline>
    <contour>
      <point x="113.5" y="2218" type="line"/>
      <point x="-120.5" y="2110" type="line"/>
      <point x="168.5" y="1681" type="line"/>
      <point x="334.5" y="1739" type="line"/>
    </contour>
    <contour>
      <point x="522.5" y="2218" type="line"/>
      <point x="292.5" y="2110" type="line"/>
      <point x="540.5" y="1681" type="line"/>
      <point x="706.5" y="1739" type="line"/>
    </contour>
    <contour>
      <point x="471.0" y="1500" type="line"/>
      <point x="115.0" y="1500" type="line"/>
      <point x="115.0" y="0" type="line"/>
      <point x="471.0" y="0" type="line"/>
    </contour>
  </outline>
</glyph>
<glyph name="uni1E57" format="1">
  <advance width="1091"/>
  <unicode hex="1E57"/>
  <outline>
    <contour>
      <point x="373.5" y="1681" type="line"/>
      <point x="731.5" y="1681" type="line"/>
      <point x="731.5" y="1979" type="line"/>
      <point x="373.5" y="1979" type="line"/>
    </contour>
    <contour>
      <point x="637.0" y="438" type="line" smooth="yes"/>
      <point x="637.0" y="346"/>
      <point x="629.0" y="262"/>
      <point x="556.0" y="262" type="curve" smooth="yes"/>
      <point x="481.0" y="262"/>
      <point x="468.0" y="336"/>
      <point x="468.0" y="422" type="curve" smooth="yes"/>
      <point x="468.0" y="1079" type="line" smooth="yes"/>
      <point x="468.0" y="1183"/>
      <point x="498.0" y="1235"/>
      <point x="554.0" y="1235" type="curve" smooth="yes"/>
      <point x="631.0" y="1235"/>
      <point x="637.0" y="1152"/>
      <point x="637.0" y="1075" type="curve" smooth="yes"/>
    </contour>
    <contour>
      <point x="993.0" y="1075" type="line" smooth="yes"/>
      <point x="993.0" y="1323"/>
      <point x="940.0" y="1518"/>
      <point x="692.0" y="1518" type="curve" smooth="yes"/>
      <point x="603.0" y="1518"/>
      <point x="506.0" y="1449"/>
      <point x="468.0" y="1349" type="curve"/>
      <point x="468.0" y="1500" type="line"/>
      <point x="112.0" y="1500" type="line"/>
      <point x="112.0" y="-300" type="line"/>
      <point x="468.0" y="-300" type="line"/>
      <point x="468.0" y="78" type="line"/>
      <point x="515.0" y="27"/>
      <point x="585.0" y="-18"/>
      <point x="675.0" y="-18" type="curve" smooth="yes"/>
      <point x="971.0" y="-18"/>
      <point x="993.0" y="225"/>
      <point x="993.0" y="521" type="curve" smooth="yes"/>
    </contour>
  </outline>
</glyph>
<glyph name="Wdieresis" format="1">
  <advance width="1432"/>
  <unicode hex="1E84"/>
  <outline>
    <contour>
      <point x="779" y="1944" type="line"/>
      <point x="1137" y="1944" type="line"/>
      <point x="1137" y="2242" type="line"/>
      <point x="779" y="2242" type="line"/>
    </contour>
    <contour>
      <point x="295" y="1944" type="line"/>
      <point x="653" y="1944" type="line"/>
      <point x="653" y="2242" type="line"/>
      <point x="295" y="2242" type="line"/>
    </contour>
    <contour>
      <point x="54" y="1761" type="line"/>
      <point x="243" y="0" type="line"/>
      <point x="612" y="0" type="line"/>
      <point x="716" y="977" type="line"/>
      <point x="824" y="0" type="line"/>
      <point x="1186" y="0" type="line"/>
      <point x="1378" y="1761" type="line"/>
      <point x="1060" y="1761" type="line"/>
      <point x="966" y="649" type="line"/>
      <point x="862" y="1761" type="line"/>
      <point x="574" y="1761" type="line"/>
      <point x="465" y="649" type="line"/>
      <point x="368" y="1761" type="line"/>
    </contour>
  </outline>
</glyph>
